<svg xmlns="http://www.w3.org/2000/svg" width="48" height="48" viewBox="0 0 48 48">
	<defs>
		<linearGradient id="bg" x1="0" y1="0" x2="1" y2="1">
			<stop offset="0%" stop-color="#127381"/>
			<stop offset="100%" stop-color="#e05a19"/>
		</linearGradient>
	</defs>
	<rect width="48" height="48" rx="11" fill="url(#bg)"/>
	<circle cx="24" cy="24" r="15" fill="#fff" opacity="0.14"/>
	<g fill="none" stroke="#fff" stroke-linecap="round" stroke-linejoin="round">
		<rect x="13.5" y="10.5" width="12.5" height="24" rx="3" fill="#fff" opacity="0.16" stroke-width="0"/>
		<rect x="15" y="12" width="11" height="23" rx="3" stroke-width="2.8"/>
		<rect x="17.8" y="15.2" width="5.5" height="4" rx="1" stroke-width="2"/>
		<path d="M26 15.8h4c1.8 0 3.2 1.4 3.2 3.2v8.9c0 1.2.9 2.1 2.1 2.1" stroke-width="2.8"/>
		<path d="M35.3 31.7v-4c0-.8.5-1.4 1.2-1.4s1.2.6 1.2 1.4v4" stroke-width="2.8"/>
		<path d="M18.8 25.2h4" stroke-width="2.3"/>
		<path d="M20.8 22.6v2.6" stroke-width="2.3"/>
		<path d="M18.8 27.9h4" stroke-width="2.3"/>
		<path d="M17.3 22.8l1.5 1.5" stroke-width="2.3"/>
		<path d="M24.3 26.5l-1.5 1.4" stroke-width="2.3"/>
		<path d="M20 31.8h3.7" stroke-width="2.8"/>
	</g>
</svg>